<?xml version="1.0" standalone="no"?><!-- Generator: Gravit.io --><svg xmlns="http://www.w3.org/2000/svg" xmlns:xlink="http://www.w3.org/1999/xlink" style="isolation:isolate" viewBox="0 0 170 170" width="170" height="170"><g id="tox-icon-colored"><linearGradient id="_lgradient_2" x1="0%" y1="90.1215893463151%" x2="156.4280746848308%" y2="90.1215893463151%"><stop offset="0%" stop-opacity="1" style="stop-color:rgb(63,81,181)"/><stop offset="100%" stop-opacity="1" style="stop-color:rgb(149,74,151)"/></linearGradient><path d=" M 124.47 66.632 C 124.47 59.758 124.578 51.149 124.421 44.277 C 124.352 41.316 124.027 38.297 123.323 35.424 C 118.29 14.886 98.351 2.113 77.415 5.891 C 58.882 9.235 45.085 25.724 45.085 44.529 L 45.085 64.871 L 45.085 66.588 C 44.386 66.588 43.916 66.586 43.443 66.588 L 26.548 66.588 C 22.468 66.588 19.158 69.887 19.158 73.957 L 19.158 157.4 C 19.158 161.468 22.468 164.769 26.548 164.769 L 143.45 164.769 C 147.533 164.769 150.842 161.468 150.842 157.4 L 150.842 73.957 C 150.842 69.887 147.533 66.588 143.45 66.588 L 124.47 66.632 Z  M 95.826 144.781 L 74.087 144.781 C 70.67 144.781 67.903 141.973 67.903 138.511 C 67.903 138.418 67.913 138.324 67.916 138.232 C 67.909 138.232 67.907 136.734 67.904 135.237 C 67.903 133.581 68.656 128.945 70.937 125.593 C 73.351 122.045 76.609 119.739 80.143 118.701 C 75.485 116.807 72.203 112.249 72.203 106.928 C 72.203 99.902 77.912 94.211 84.956 94.211 C 92.002 94.211 97.708 99.902 97.708 106.928 C 97.708 112.384 94.259 117.038 89.414 118.841 C 92.845 119.946 96.09 122.234 98.644 125.747 C 101.029 129.026 102.006 133.585 102.006 135.239 L 102.006 138.236 C 101.997 138.327 102.006 138.42 102.006 138.514 C 102.008 141.973 99.24 144.781 95.826 144.781 Z  M 110.057 53.799 C 107.759 60.564 103.407 65.983 98.86 71.275 C 95.35 75.358 91.224 78.794 86.83 81.907 C 86.619 82.059 86.392 82.183 85.822 82.534 C 88.443 78.021 90.556 73.734 91.168 68.737 C 84.938 70.207 79.063 69.564 73.375 67.065 C 63.278 62.629 57.244 52.954 58.274 42.031 C 59.117 33.042 64.071 26.563 71.989 22.379 C 84.741 15.64 101.025 19.951 108.315 31.939 C 112.563 38.919 112.629 46.23 110.057 53.799 Z " fill-rule="evenodd" fill="url(#_lgradient_2)"/></g></svg>