<?xml version="1.0" standalone="no"?><!-- Generator: Gravit.io --><svg xmlns="http://www.w3.org/2000/svg" xmlns:xlink="http://www.w3.org/1999/xlink" style="isolation:isolate" viewBox="4.158 5.231 131.685 159.538" width="131.685" height="159.538"><g id="tox-icon-colored"><linearGradient id="_lgradient_1" x1="0%" y1="90.1215893463151%" x2="156.4280746848308%" y2="90.1215893463151%"><stop offset="0%" stop-opacity="1" style="stop-color:rgb(63,81,181)"/><stop offset="100%" stop-opacity="1" style="stop-color:rgb(149,74,151)"/></linearGradient><path d=" M 109.47 66.632 C 109.47 59.758 109.578 51.149 109.421 44.277 C 109.352 41.316 109.027 38.297 108.323 35.424 C 103.29 14.886 83.351 2.113 62.415 5.891 C 43.882 9.235 30.085 25.724 30.085 44.529 L 30.085 64.871 L 30.085 66.588 C 29.386 66.588 28.916 66.586 28.443 66.588 L 11.548 66.588 C 7.468 66.588 4.158 69.887 4.158 73.957 L 4.158 157.4 C 4.158 161.468 7.468 164.769 11.548 164.769 L 128.45 164.769 C 132.533 164.769 135.842 161.468 135.842 157.4 L 135.842 73.957 C 135.842 69.887 132.533 66.588 128.45 66.588 L 109.47 66.632 Z  M 80.826 144.781 L 59.087 144.781 C 55.67 144.781 52.903 141.973 52.903 138.511 C 52.903 138.418 52.913 138.324 52.916 138.232 C 52.909 138.232 52.907 136.734 52.904 135.237 C 52.903 133.581 53.656 128.945 55.937 125.593 C 58.351 122.045 61.609 119.739 65.143 118.701 C 60.485 116.807 57.203 112.249 57.203 106.928 C 57.203 99.902 62.912 94.211 69.956 94.211 C 77.002 94.211 82.708 99.902 82.708 106.928 C 82.708 112.384 79.259 117.038 74.414 118.841 C 77.845 119.946 81.09 122.234 83.644 125.747 C 86.029 129.026 87.006 133.585 87.006 135.239 L 87.006 138.236 C 86.997 138.327 87.006 138.42 87.006 138.514 C 87.008 141.973 84.24 144.781 80.826 144.781 Z  M 95.057 53.799 C 92.759 60.564 88.407 65.983 83.86 71.275 C 80.35 75.358 76.224 78.794 71.83 81.907 C 71.619 82.059 71.392 82.183 70.822 82.534 C 73.443 78.021 75.556 73.734 76.168 68.737 C 69.938 70.207 64.063 69.564 58.375 67.065 C 48.278 62.629 42.244 52.954 43.274 42.031 C 44.117 33.042 49.071 26.563 56.989 22.379 C 69.741 15.64 86.025 19.951 93.315 31.939 C 97.563 38.919 97.629 46.23 95.057 53.799 Z " fill-rule="evenodd" fill="url(#_lgradient_1)"/></g></svg>