<?xml version="1.0" standalone="no"?><!-- Generator: Gravit.io --><svg xmlns="http://www.w3.org/2000/svg" xmlns:xlink="http://www.w3.org/1999/xlink" style="isolation:isolate" viewBox="12.294 10 74.674 30" width="74.674" height="30"><path d="M 32.098 21.546 C 32.098 20.253 32.118 18.635 32.088 17.342 C 32.075 16.786 32.014 16.218 31.882 15.678 C 30.935 11.816 27.186 9.414 23.249 10.124 C 19.764 10.753 17.17 13.854 17.17 17.39 L 17.17 21.215 L 17.17 21.538 C 17.038 21.538 16.95 21.537 16.861 21.538 L 13.684 21.538 C 12.917 21.538 12.294 22.158 12.294 22.923 L 12.294 38.614 C 12.294 39.379 12.917 40 13.684 40 L 35.667 40 C 36.435 40 37.057 39.379 37.057 38.614 L 37.057 22.923 C 37.057 22.158 36.435 21.538 35.667 21.538 L 32.098 21.546 Z M 26.711 36.241 L 22.623 36.241 C 21.981 36.241 21.461 35.713 21.461 35.062 C 21.461 35.045 21.463 35.027 21.463 35.01 C 21.462 35.01 21.461 34.728 21.461 34.447 C 21.461 34.135 21.602 33.264 22.031 32.633 C 22.485 31.966 23.098 31.532 23.762 31.337 C 22.886 30.981 22.269 30.124 22.269 29.123 C 22.269 27.802 23.343 26.732 24.667 26.732 C 25.992 26.732 27.065 27.802 27.065 29.123 C 27.065 30.149 26.417 31.024 25.506 31.364 C 26.151 31.571 26.761 32.002 27.241 32.662 C 27.69 33.279 27.873 34.136 27.873 34.447 L 27.873 35.011 C 27.872 35.028 27.873 35.045 27.873 35.063 C 27.874 35.713 27.353 36.241 26.711 36.241 Z M 29.387 19.133 C 28.955 20.405 28.137 21.424 27.282 22.419 C 26.622 23.187 25.846 23.833 25.02 24.418 C 24.98 24.447 24.937 24.47 24.83 24.536 C 25.323 23.688 25.72 22.882 25.835 21.942 C 24.664 22.218 23.559 22.097 22.49 21.627 C 20.591 20.793 19.456 18.974 19.65 16.92 C 19.809 15.23 20.74 14.011 22.229 13.225 C 24.627 11.957 27.689 12.768 29.06 15.022 C 29.859 16.335 29.871 17.71 29.387 19.133 Z M 51.496 23.576 L 46.744 23.576 L 46.744 20.48 L 59.728 20.48 L 59.728 23.576 L 54.856 23.576 L 54.856 38.048 L 51.496 38.048 L 51.496 23.576 Z M 61.144 31.928 L 61.144 31.928 L 61.144 31.928 Q 61.144 30.272 61.336 29.156 L 61.336 29.156 L 61.336 29.156 Q 61.528 28.04 61.936 27.26 L 61.936 27.26 L 61.936 27.26 Q 62.344 26.48 63.064 26.024 L 63.064 26.024 L 63.064 26.024 Q 64.384 25.184 66.952 25.184 L 66.952 25.184 L 66.952 25.184 Q 70.24 25.184 71.5 26.624 L 71.5 26.624 L 71.5 26.624 Q 72.76 28.064 72.76 31.748 L 72.76 31.748 L 72.76 31.748 Q 72.76 35.432 71.524 36.8 L 71.524 36.8 L 71.524 36.8 Q 70.288 38.168 66.952 38.168 L 66.952 38.168 L 66.952 38.168 Q 63.688 38.168 62.392 36.704 L 62.392 36.704 L 62.392 36.704 Q 61.144 35.288 61.144 31.928 Z M 64.996 28.544 L 64.996 28.544 L 64.996 28.544 Q 64.696 28.976 64.6 29.732 L 64.6 29.732 L 64.6 29.732 Q 64.504 30.488 64.504 31.784 L 64.504 31.784 L 64.504 31.784 Q 64.504 33.08 64.624 33.8 L 64.624 33.8 L 64.624 33.8 Q 64.744 34.52 65.068 34.892 L 65.068 34.892 L 65.068 34.892 Q 65.392 35.264 65.8 35.36 L 65.8 35.36 L 65.8 35.36 Q 66.208 35.456 66.904 35.456 L 66.904 35.456 L 66.904 35.456 Q 67.6 35.456 67.948 35.408 L 67.948 35.408 L 67.948 35.408 Q 68.296 35.36 68.62 35.168 L 68.62 35.168 L 68.62 35.168 Q 68.944 34.976 69.088 34.568 L 69.088 34.568 L 69.088 34.568 Q 69.4 33.704 69.4 32.228 L 69.4 32.228 L 69.4 32.228 Q 69.4 30.752 69.34 30.068 L 69.34 30.068 L 69.34 30.068 Q 69.28 29.384 69.136 28.916 L 69.136 28.916 L 69.136 28.916 Q 68.992 28.448 68.68 28.256 L 68.68 28.256 L 68.68 28.256 Q 68.128 27.896 67.132 27.884 L 67.132 27.884 L 67.132 27.884 Q 66.136 27.872 65.716 27.992 L 65.716 27.992 L 65.716 27.992 Q 65.296 28.112 64.996 28.544 Z M 78.184 38.048 L 74.104 38.048 L 78.52 31.664 L 74.104 25.304 L 78.184 25.304 L 80.512 29.12 L 82.912 25.304 L 86.968 25.304 L 82.504 31.736 L 86.776 38.048 L 82.912 38.048 L 80.536 34.28 L 78.184 38.048 Z" style="stroke:none;fill:#FFFFFF;stroke-miterlimit:10;fill-rule:evenodd;"/></svg>