<?xml version="1.0" standalone="no"?><!-- Generator: Gravit.io --><svg xmlns="http://www.w3.org/2000/svg" xmlns:xlink="http://www.w3.org/1999/xlink" style="isolation:isolate" viewBox="142.589 87.251 131.685 159.538" width="131.685" height="159.538"><g id="tox-icon"><path d=" M 247.901 148.652 C 247.901 141.779 248.01 133.17 247.852 126.298 C 247.783 123.337 247.458 120.318 246.755 117.445 C 241.721 96.907 221.782 84.134 200.846 87.912 C 182.313 91.255 168.516 107.744 168.516 126.55 L 168.516 146.892 L 168.516 148.608 C 167.817 148.608 167.348 148.607 166.874 148.608 L 149.98 148.608 C 145.899 148.608 142.589 151.908 142.589 155.978 L 142.589 239.42 C 142.589 243.489 145.899 246.79 149.98 246.79 L 266.881 246.79 C 270.964 246.79 274.274 243.489 274.274 239.42 L 274.274 155.978 C 274.274 151.908 270.964 148.608 266.881 148.608 L 247.901 148.652 Z  M 219.258 226.802 L 197.518 226.802 C 194.102 226.802 191.334 223.994 191.334 220.531 C 191.334 220.439 191.344 220.345 191.347 220.252 C 191.34 220.252 191.338 218.755 191.335 217.258 C 191.334 215.602 192.087 210.966 194.368 207.613 C 196.782 204.066 200.04 201.759 203.574 200.722 C 198.916 198.828 195.635 194.27 195.635 188.948 C 195.635 181.922 201.344 176.231 208.387 176.231 C 215.433 176.231 221.139 181.922 221.139 188.948 C 221.139 194.405 217.691 199.058 212.845 200.861 C 216.277 201.966 219.521 204.255 222.075 207.767 C 224.46 211.046 225.437 215.606 225.437 217.26 L 225.437 220.257 C 225.429 220.348 225.437 220.44 225.437 220.534 C 225.439 223.994 222.671 226.802 219.258 226.802 Z  M 233.489 135.819 C 231.19 142.584 226.838 148.004 222.292 153.296 C 218.781 157.379 214.655 160.815 210.262 163.928 C 210.05 164.079 209.823 164.204 209.254 164.555 C 211.874 160.042 213.987 155.755 214.599 150.758 C 208.369 152.228 202.494 151.585 196.806 149.085 C 186.709 144.65 180.675 134.974 181.705 124.052 C 182.548 115.063 187.502 108.584 195.42 104.399 C 208.172 97.661 224.456 101.971 231.747 113.959 C 235.994 120.94 236.061 128.25 233.489 135.819 Z " fill-rule="evenodd" fill="rgb(238,238,238)"/></g></svg>