<svg version="1" xmlns="http://www.w3.org/2000/svg" width="933.333" height="933.333" viewBox="0 0 700.000000 700.000000"><path d="M338.5 22.1c-24.3 1.8-46.2 7.8-65 17.7-49.6 26.3-81.1 73.3-87.2 130.2-.3 3-.6 27.7-.6 54.7l-.1 49.3H177c-4.7 0-23.3.2-41.5.3l-33 .2-5.6 2.6c-6.6 3.1-12 8.4-15.1 14.8l-2.3 4.6-.3 178.2-.2 178.2 2.1 5.6c3.4 9 10 15.4 19.4 18.6 3.3 1.1 45.2 1.3 247.5 1.4 133.9 0 245.8-.3 248.5-.8 9.2-1.6 17.2-7.9 21.6-17.2l2.9-6-.3-179-.2-179-2.3-4.7c-3.5-7-10-13-17-15.5-5.6-2-7.4-2.1-46.6-1.9-22.4 0-41.1-.1-41.4-.4-.4-.3-.7-21-.8-46 0-25-.4-50.5-.8-56.5-3.2-47-28.6-91.9-67.7-119.7C426 39.1 403.5 29.4 382 25.1c-9-1.9-14.4-2.5-30.5-3.5-2.2-.1-8 .1-13 .5zm29 58.3c27.8 5.2 49 16.4 66.3 35.1 10.1 11.1 21.5 31.5 23.6 42.6.2 1.3.7 3.5 1 4.9 1 4.7 1.7 12.5 1.7 19.3 0 6.7-1 17.6-1.7 18.8-.2.4-.6 2.4-1 4.5-3.2 20.8-19.7 51.7-40.8 76.5-1.7 2-5.3 6.3-8.1 9.5-6 7-17.9 19-25.5 25.7-6.3 5.6-27.3 21.7-28.2 21.7-.4 0 2.4-6 6.1-13.3 6.9-13.4 12.6-29.3 13.7-38 .5-4.4.4-4.8-1.3-4.4-1.7.5-8.7 1.8-12.8 2.3-3.6.5-20.9.5-24 0-17.1-2.6-26.4-5.5-40-12.3-34.8-17.7-56.6-51.6-56.8-88.8-.2-28.7 9.3-52.5 28.5-71.6 16.7-16.6 39.3-28.2 62.8-32.2 8-1.4 29.8-1.6 36.5-.3zm-.3 310.6c20.8 7.8 35.2 28 34.9 49-.1 9-1.9 16.4-5.7 23.8-5.6 10.6-12.5 17.6-22.7 23-2.1 1.1-3.8 2.3-3.8 2.8 0 .4 1.6 1.3 3.6 1.9 7.2 2.5 15.2 8.2 24 17 11.5 11.6 15.9 19.6 20.6 37 2.5 9.4 2.3 30.2-.3 35.5-3.4 6.7-9.1 11.7-16 13.9-4.1 1.4-92.4 1.9-100.8.6-5.8-.8-12.2-4.6-15.6-9.1-4.5-5.9-6-11.7-5.8-23.4.5-32.6 13.9-56.1 39.8-69.9 3.2-1.7 6.5-3.1 7.2-3.1 3.1 0 2-1.9-2.4-4.1-6.9-3.6-17.2-14.2-21-21.9-8.2-16.5-7.5-34.4 1.8-50.4 6.7-11.5 18.4-20.2 32.3-24.1 7.4-2.1 22.4-1.4 29.9 1.5z"/></svg>