<svg xmlns="http://www.w3.org/2000/svg" style="isolation:isolate" viewBox="142.589 87.251 131.685 159.538" width="131.685" height="159.538"><path d="M247.901 148.652c0-6.873.109-15.482-.049-22.354-.069-2.961-.394-5.98-1.097-8.853-5.034-20.538-24.973-33.311-45.909-29.533-18.533 3.343-32.33 19.832-32.33 38.638v22.058H149.98c-4.081 0-7.391 3.3-7.391 7.37v83.442c0 4.069 3.31 7.37 7.391 7.37h116.901c4.083 0 7.393-3.301 7.393-7.37v-83.442c0-4.07-3.31-7.37-7.393-7.37l-18.98.044zm-28.643 78.15h-21.74c-3.416 0-6.184-2.808-6.184-6.271 0-.092.01-.186.013-.279-.007 0-.009-1.497-.012-2.994-.001-1.656.752-6.292 3.033-9.645 2.414-3.547 5.672-5.854 9.206-6.891-4.658-1.894-7.939-6.452-7.939-11.774 0-7.026 5.709-12.717 12.752-12.717 7.046 0 12.752 5.691 12.752 12.717 0 5.457-3.448 10.11-8.294 11.913 3.432 1.105 6.676 3.394 9.23 6.906 2.385 3.279 3.362 7.839 3.362 9.493v2.997c-.008.091 0 .183 0 .277.002 3.46-2.766 6.268-6.179 6.268zm14.231-90.983c-2.299 6.765-6.651 12.185-11.197 17.477-3.511 4.083-7.637 7.519-12.03 10.632-.212.151-.439.276-1.008.627 2.62-4.513 4.733-8.8 5.345-13.797-6.23 1.47-12.105.827-17.793-1.673-10.097-4.435-16.131-14.111-15.101-25.033.843-8.989 5.797-15.468 13.715-19.653 12.752-6.738 29.036-2.428 36.327 9.56 4.247 6.981 4.314 14.291 1.742 21.86z" fill-rule="evenodd" fill="#EEE"/></svg>