<?xml version="1.0" standalone="no"?>
<!DOCTYPE svg PUBLIC "-//W3C//DTD SVG 20010904//EN"
 "http://www.w3.org/TR/2001/REC-SVG-20010904/DTD/svg10.dtd">
<svg version="1.0" xmlns="http://www.w3.org/2000/svg"
 width="700.000000pt" height="700.000000pt" viewBox="0 0 700.000000 700.000000"
 preserveAspectRatio="xMidYMid meet">
<metadata>
Created by potrace 1.11, written by Peter Selinger 2001-2013
</metadata>
<g transform="translate(0.000000,700.000000) scale(0.100000,-0.100000)"
fill="#000000" stroke="none">
<path d="M3385 6779 c-243 -18 -462 -78 -650 -177 -496 -263 -811 -733 -872
-1302 -3 -30 -6 -277 -6 -547 l-1 -493 -86 0 c-47 0 -233 -2 -415 -3 l-330 -2
-56 -26 c-66 -31 -120 -84 -151 -148 l-23 -46 -3 -1782 -2 -1782 21 -56 c34
-90 100 -154 194 -186 33 -11 452 -13 2475 -14 1339 0 2458 3 2485 8 92 16
172 79 216 172 l29 60 -3 1790 -2 1790 -23 47 c-35 70 -100 130 -170 155 -56
20 -74 21 -466 19 -224 0 -411 1 -414 4 -4 3 -7 210 -8 460 0 250 -4 505 -8
565 -32 470 -286 919 -677 1197 -179 127 -404 224 -619 267 -90 19 -144 25
-305 35 -22 1 -80 -1 -130 -5z m290 -583 c278 -52 490 -164 663 -351 101 -111
215 -315 236 -426 2 -13 7 -35 10 -49 10 -47 17 -125 17 -193 0 -67 -10 -176
-17 -188 -2 -4 -6 -24 -10 -45 -32 -208 -197 -517 -408 -765 -17 -20 -53 -63
-81 -95 -60 -70 -179 -190 -255 -257 -63 -56 -273 -217 -282 -217 -4 0 24 60
61 133 69 134 126 293 137 380 5 44 4 48 -13 44 -17 -5 -87 -18 -128 -23 -36
-5 -209 -5 -240 0 -171 26 -264 55 -400 123 -348 177 -566 516 -568 888 -2
287 93 525 285 716 167 166 393 282 628 322 80 14 298 16 365 3z m-3 -3106
c208 -78 352 -280 349 -490 -1 -90 -19 -164 -57 -238 -56 -106 -125 -176 -227
-230 -21 -11 -38 -23 -38 -28 0 -4 16 -13 36 -19 72 -25 152 -82 240 -170 115
-116 159 -196 206 -370 25 -94 23 -302 -3 -355 -34 -67 -91 -117 -160 -139
-41 -14 -924 -19 -1008 -6 -58 8 -122 46 -156 91 -45 59 -60 117 -58 234 5
326 139 561 398 699 32 17 65 31 72 31 31 0 20 19 -24 41 -69 36 -172 142
-210 219 -82 165 -75 344 18 504 67 115 184 202 323 241 74 21 224 14 299 -15z"/>
</g>
</svg>
