<svg xmlns="http://www.w3.org/2000/svg" style="isolation:isolate" width="170" height="170"><linearGradient id="a" x1="0%" y1="90.122%" x2="156.428%" y2="90.122%"><stop offset="0%" stop-color="#3f51b5"/><stop offset="100%" stop-color="#954a97"/></linearGradient><path d="M124.47 66.632c0-6.874.108-15.483-.049-22.355-.069-2.961-.394-5.98-1.098-8.853C118.29 14.886 98.351 2.113 77.415 5.891c-18.533 3.344-32.33 19.833-32.33 38.638v22.059c-.699 0-1.169-.002-1.642 0H26.548c-4.08 0-7.39 3.299-7.39 7.369V157.4c0 4.068 3.31 7.369 7.39 7.369H143.45c4.083 0 7.392-3.301 7.392-7.369V73.957c0-4.07-3.309-7.369-7.392-7.369l-18.98.044zm-28.644 78.149H74.087c-3.417 0-6.184-2.808-6.184-6.27 0-.093.01-.187.013-.279-.007 0-.009-1.498-.012-2.995-.001-1.656.752-6.292 3.033-9.644 2.414-3.548 5.672-5.854 9.206-6.892-4.658-1.894-7.94-6.452-7.94-11.773 0-7.026 5.709-12.717 12.753-12.717 7.046 0 12.752 5.691 12.752 12.717 0 5.456-3.449 10.11-8.294 11.913 3.431 1.105 6.676 3.393 9.23 6.906 2.385 3.279 3.362 7.838 3.362 9.492v2.997c-.009.091 0 .184 0 .278.002 3.459-2.766 6.267-6.18 6.267zm14.231-90.982c-2.298 6.765-6.65 12.184-11.197 17.476-3.51 4.083-7.636 7.519-12.03 10.632-.211.152-.438.276-1.008.627 2.621-4.513 4.734-8.8 5.346-13.797-6.23 1.47-12.105.827-17.793-1.672-10.097-4.436-16.131-14.111-15.101-25.034.843-8.989 5.797-15.468 13.715-19.652 12.752-6.739 29.036-2.428 36.326 9.56 4.248 6.98 4.314 14.291 1.742 21.86z" fill-rule="evenodd" fill="url(#a)"/></svg>